v 608.1384888 239.914093 0
v 647.062439 239.914093 0
v 647.062439 239.914093 10
v 608.1384888 239.914093 10
v 608.1384888 249.3743744 0
v 608.1384888 249.3743744 10
v 635.4865112 324.906189 0
v 635.4865112 324.906189 10
v 647.9204712 324.906189 0
v 647.9204712 324.906189 10
v 621.7693481 251.270462 0
v 621.7693481 251.270462 10
v 647.062439 251.270462 0
v 647.062439 251.270462 10
v 647.062439 284.9111328 0
v 647.062439 284.9111328 10
v 659.1563721 284.9111328 0
v 659.1563721 284.9111328 10
v 659.1563721 251.270462 0
v 659.1563721 251.270462 10
v 667.449585 251.270462 0
v 667.449585 251.270462 10
v 667.449585 239.914093 0
v 667.449585 239.914093 10
v 659.1563721 239.914093 0
v 659.1563721 239.914093 10
v 659.1563721 224.9328613 0
v 659.1563721 224.9328613 10
v 647.062439 224.9328613 0
v 647.062439 224.9328613 10
vn 0 -1 0
vn -1 0 0
vn 0 0 -1
vn 0 -1 0
vn -1 0 0
vn 0 0 -1
vn 0 -1 0
vn -1 0 0
vn 0 0 1
vn 0 -1 0
vn -1 0 0
vn 0 0 1
vn -1 0 0
vn -0.9402647018 0.3404442966 2.246825567e-16
vn 0 0 -1
vn -1 0 0
vn -0.9402647018 0.3404442966 4.493651134e-16
vn 0 0 1
vn -0.9402647018 0.3404442966 0
vn 0 1 0
vn 0 0 -1
vn -0.9402647018 0.3404442966 2.246825567e-16
vn 0 1 0
vn 0 0 1
vn 0 1 0
vn 0.9423376918 -0.3346634805 0
vn 0 0 -1
vn 0 1 0
vn 0.9423376918 -0.3346634805 0
vn 0 0 1
vn 0.9423376918 -0.3346634805 0
vn 0 1 0
vn 0 0 -1
vn 0.9423376918 -0.3346634805 0
vn 0 1 0
vn 0 0 1
vn 0 1 0
vn -1 0 0
vn 0 0 -1
vn 0 1 0
vn -1 0 0
vn 0 0 1
vn -1 0 0
vn 0 1 0
vn 0 0 -1
vn -1 0 0
vn 0 1 0
vn 0 0 1
vn 0 1 0
vn 1 0 0
vn 0 0 -1
vn 0 1 0
vn 1 0 0
vn 0 0 1
vn 1 0 0
vn 0 1 0
vn 0 0 -1
vn 1 0 0
vn 0 1 0
vn 0 0 1
vn 0 1 0
vn 1 0 0
vn 0 0 -1
vn 0 1 0
vn 1 0 0
vn 0 0 1
vn 1 0 0
vn 0 -1 0
vn 0 0 -1
vn 1 0 0
vn 0 -1 0
vn 0 0 1
vn 0 -1 0
vn 1 0 0
vn 0 0 -1
vn 0 -1 0
vn 1 0 0
vn 0 0 1
vn 1 0 0
vn 0 -1 0
vn 0 0 -1
vn 1 0 0
vn 0 -1 0
vn 0 0 1
vn 0 -1 0
vn -1 0 0
vn 0 0 -1
vn 0 -1 0
vn -1 0 0
vn 0 0 1
f 1//1 2//4 4//10 
f 4//10 2//4 3//7 
f 5//13 1//2 6//16 
f 6//16 1//2 4//11 
f 7//19 5//14 8//22 
f 8//22 5//14 6//17 
f 9//25 7//20 10//28 
f 10//28 7//20 8//23 
f 11//31 9//26 12//34 
f 12//34 9//26 10//29 
f 13//37 11//32 14//40 
f 14//40 11//32 12//35 
f 15//43 13//38 16//46 
f 16//46 13//38 14//41 
f 17//49 15//44 18//52 
f 18//52 15//44 16//47 
f 19//55 17//50 20//58 
f 20//58 17//50 18//53 
f 21//61 19//56 22//64 
f 22//64 19//56 20//59 
f 23//67 21//62 24//70 
f 24//70 21//62 22//65 
f 25//73 23//68 26//76 
f 26//76 23//68 24//71 
f 27//79 25//74 28//82 
f 28//82 25//74 26//77 
f 29//85 27//80 30//88 
f 30//88 27//80 28//83 
f 2//5 29//86 3//8 
f 3//8 29//86 30//89 
f 30//90 28//84 3//9 
f 3//9 28//84 26//78 
f 3//9 26//78 14//42 
f 14//42 26//78 20//60 
f 14//42 20//60 16//48 
f 16//48 20//60 18//54 
f 26//78 24//72 20//60 
f 20//60 24//72 22//66 
f 14//42 12//36 3//9 
f 3//9 12//36 4//12 
f 4//12 12//36 6//18 
f 6//18 12//36 8//24 
f 8//24 12//36 10//30 
f 27//81 29//87 25//75 
f 25//75 29//87 2//6 
f 25//75 2//6 13//39 
f 13//39 2//6 11//33 
f 11//33 2//6 1//3 
f 11//33 1//3 5//15 
f 5//15 7//21 11//33 
f 11//33 7//21 9//27 
f 15//45 17//51 13//39 
f 13//39 17//51 19//57 
f 13//39 19//57 25//75 
f 25//75 19//57 23//69 
f 23//69 19//57 21//63 
