# Blender v2.82 (sub 7) OBJ File: ''
# www.blender.org
v 0.814453 -0.000000 -0.814453
v 0.814453 -0.000000 0.814453
v -0.814453 -0.000000 -0.814453
v -0.814453 -0.000000 0.814453
v 0.814453 0.100716 0.814453
v -0.814453 0.100716 0.814453
v 0.814453 0.100716 -0.814453
v -0.814453 0.100716 -0.814453
vt 1.000000 1.000000
vt 1.000000 0.000000
vt 1.000000 0.000000
vt 0.000000 0.000000
vt 0.000000 1.000000
vt 0.000000 1.000000
vt 0.000000 0.000000
vt 1.000000 1.000000
vn -1.0000 0.0000 0.0000
vn 0.0000 -1.0000 0.0000
vn 0.0000 1.0000 0.0000
vn 1.0000 0.0000 0.0000
vn 0.0000 0.0000 1.0000
vn 0.0000 0.0000 -1.0000
s off
f 4/1/1 8/2/1 3/3/1
f 4/1/2 1/4/2 2/5/2
f 8/2/3 5/6/3 7/7/3
f 1/4/4 5/6/4 2/5/4
f 2/5/5 6/8/5 4/1/5
f 3/3/6 7/7/6 1/4/6
f 4/1/1 6/8/1 8/2/1
f 4/1/2 3/3/2 1/4/2
f 8/2/3 6/8/3 5/6/3
f 1/4/4 7/7/4 5/6/4
f 2/5/5 5/6/5 6/8/5
f 3/3/6 8/2/6 7/7/6
